<svg width="16" height="16" viewBox="0 0 16 16" fill="none" xmlns="http://www.w3.org/2000/svg">
<path fill-rule="evenodd" clip-rule="evenodd" d="M0.833313 7.66671C0.833313 11.4334 3.89998 14.5 7.66665 14.5C11.4333 14.5 14.5 11.4334 14.5 7.66671C14.5 3.90004 11.4333 0.833374 7.66665 0.833374C3.89998 0.833374 0.833313 3.90004 0.833313 7.66671ZM1.83331 7.66671C1.83331 4.45337 4.44665 1.83337 7.66665 1.83337C10.8866 1.83337 13.5 4.45337 13.5 7.66671C13.5 10.88 10.8866 13.5 7.66665 13.5C4.44665 13.5 1.83331 10.88 1.83331 7.66671ZM14.3133 15.02C14.4133 15.12 14.54 15.1666 14.6666 15.1666C14.7933 15.1666 14.92 15.12 15.02 15.02C15.2133 14.8266 15.2133 14.5066 15.02 14.3133L13.6866 12.98C13.4933 12.7866 13.1733 12.7866 12.98 12.98C12.7866 13.1733 12.7866 13.4933 12.98 13.6866L14.3133 15.02Z" fill="#999FA6"/>
</svg>
